<?xml version="1.0" standalone="no"?>
<!DOCTYPE svg PUBLIC "-//W3C//DTD SVG 20010904//EN"
 "http://www.w3.org/TR/2001/REC-SVG-20010904/DTD/svg10.dtd">
<svg version="1.0" xmlns="http://www.w3.org/2000/svg"
 width="486.000000pt" height="486.000000pt" viewBox="0 0 486.000000 486.000000"
 preserveAspectRatio="xMidYMid meet">
<metadata>
Created by potrace 1.14, written by Peter Selinger 2001-2017
</metadata>
<g transform="translate(0.000000,486.000000) scale(0.100000,-0.100000)"
fill="#000000" stroke="none">
<path d="M1657 4124 c-1 -1 -23 -5 -49 -8 -237 -29 -468 -100 -668 -208 -70
-37 -221 -133 -264 -168 -230 -182 -427 -431 -530 -670 -15 -36 -34 -78 -41
-95 -14 -31 -62 -193 -70 -236 -3 -13 -7 -39 -10 -59 -3 -20 -8 -47 -11 -60
-4 -14 -8 -97 -9 -185 -7 -359 91 -678 295 -967 123 -174 340 -374 519 -477
146 -84 311 -158 391 -176 8 -1 40 -10 70 -19 62 -18 189 -44 265 -54 70 -9
389 -8 455 1 30 4 89 14 130 23 41 8 84 16 95 18 11 2 54 14 95 26 255 77 497
210 699 385 116 100 273 286 344 407 15 27 30 48 32 48 3 0 26 -15 52 -34 137
-97 283 -137 493 -136 119 1 189 7 270 25 174 38 381 188 497 360 73 108 124
236 140 346 16 107 7 357 -15 444 -68 272 -224 473 -430 555 l-63 25 6 48 c14
110 43 188 103 279 43 64 52 100 48 196 -4 100 -25 159 -76 209 -38 37 -197
119 -250 129 -68 13 -163 4 -215 -20 -111 -51 -235 -212 -280 -365 -18 -60
-26 -175 -15 -227 15 -74 19 -85 45 -141 14 -30 25 -57 25 -58 0 -1 -28 -12
-62 -25 -35 -12 -98 -40 -140 -63 -43 -22 -79 -39 -81 -36 -2 2 -25 42 -51 89
-122 220 -306 416 -548 583 -38 26 -68 44 -68 41 0 -3 -13 4 -29 15 -84 60
-350 163 -506 196 -85 18 -99 20 -210 34 -62 8 -371 12 -378 5z"/>
</g>
</svg>
